<?xml version="1.0" encoding="utf-8"?>
<!-- Generator: Adobe Illustrator 15.0.0, SVG Export Plug-In . SVG Version: 6.00 Build 0)  -->
<!DOCTYPE svg PUBLIC "-//W3C//DTD SVG 1.1//EN" "http://www.w3.org/Graphics/SVG/1.1/DTD/svg11.dtd">
<svg version="1.1" id="Calque_1" xmlns="http://www.w3.org/2000/svg" xmlns:xlink="http://www.w3.org/1999/xlink" x="0px" y="0px"
	 width="629.89px" height="160px" viewBox="0 0 629.89 160" enable-background="new 0 0 629.89 160" xml:space="preserve">
<g>
	<path fill="#40539A" d="M173.397,101.91c2.351,0,4.291-0.195,5.823-0.588c1.531-0.39,2.76-0.925,3.687-1.603
		c0.924-0.677,1.566-1.478,1.923-2.404c0.355-0.925,0.534-1.959,0.534-3.099c0-2.421-1.14-4.435-3.419-6.038
		c-2.281-1.603-6.198-3.329-11.754-5.183c-2.423-0.854-4.845-1.833-7.267-2.938c-2.423-1.104-4.595-2.493-6.518-4.168
		c-1.924-1.673-3.492-3.703-4.702-6.091c-1.212-2.385-1.817-5.289-1.817-8.708c0-3.419,0.641-6.5,1.924-9.243
		c1.282-2.742,3.098-5.076,5.449-7c2.351-1.923,5.2-3.401,8.549-4.434c3.348-1.032,7.122-1.55,11.327-1.55
		c4.985,0,9.296,0.534,12.929,1.603c3.634,1.069,6.625,2.244,8.976,3.526l-4.808,13.144c-2.067-1.068-4.365-2.012-6.893-2.832
		c-2.53-0.817-5.575-1.229-9.136-1.229c-3.991,0-6.857,0.553-8.602,1.656c-1.747,1.105-2.619,2.797-2.619,5.076
		c0,1.354,0.321,2.494,0.962,3.419c0.641,0.927,1.549,1.763,2.725,2.511c1.175,0.748,2.528,1.426,4.061,2.03
		c1.531,0.606,3.223,1.229,5.076,1.87c3.847,1.426,7.194,2.832,10.044,4.221c2.848,1.389,5.218,3.011,7.106,4.862
		c1.886,1.854,3.294,4.025,4.221,6.519c0.924,2.495,1.389,5.521,1.389,9.083c0,6.911-2.422,12.272-7.267,16.082
		c-4.845,3.812-12.146,5.717-21.905,5.717c-3.277,0-6.234-0.197-8.869-0.588c-2.637-0.392-4.969-0.873-6.999-1.442
		c-2.031-0.569-3.777-1.175-5.236-1.817c-1.46-0.641-2.69-1.246-3.686-1.816l4.702-13.25c2.207,1.212,4.932,2.297,8.174,3.259
		C164.723,101.429,168.695,101.91,173.397,101.91z"/>
	<path fill="#40539A" d="M258.433,112.703c-2.709,0.785-6.199,1.514-10.473,2.19c-4.275,0.677-8.762,1.016-13.464,1.016
		c-4.773,0-8.745-0.641-11.915-1.924c-3.169-1.282-5.681-3.08-7.532-5.396c-1.854-2.314-3.171-5.076-3.954-8.282
		c-0.784-3.206-1.176-6.732-1.176-10.579V58.42h15.921v29.385c0,5.129,0.678,8.833,2.031,11.113
		c1.354,2.281,3.882,3.419,7.587,3.419c1.139,0,2.352-0.054,3.633-0.161c1.282-0.106,2.422-0.23,3.42-0.374V58.42h15.922V112.703z"
		/>
	<path fill="#40539A" d="M297.986,86.95c0-4.985,0.765-9.35,2.298-13.09c1.53-3.74,3.542-6.855,6.037-9.35
		c2.492-2.493,5.36-4.381,8.602-5.664c3.241-1.283,6.572-1.923,9.991-1.923c7.979,0,14.282,2.441,18.914,7.319
		c4.63,4.88,6.946,12.058,6.946,21.531c0,0.927-0.037,1.942-0.107,3.046c-0.072,1.105-0.144,2.083-0.214,2.938h-36.118
		c0.356,3.277,1.887,5.877,4.596,7.8c2.707,1.923,6.34,2.885,10.899,2.885c2.92,0,5.786-0.268,8.602-0.801
		c2.813-0.534,5.11-1.192,6.893-1.977l2.137,12.929c-0.854,0.428-1.995,0.855-3.419,1.283c-1.427,0.427-3.012,0.801-4.756,1.122
		c-1.746,0.321-3.615,0.588-5.609,0.801c-1.995,0.214-3.99,0.321-5.984,0.321c-5.06,0-9.456-0.749-13.196-2.244
		c-3.74-1.496-6.839-3.543-9.296-6.145c-2.459-2.6-4.275-5.68-5.45-9.244C298.574,94.929,297.986,91.083,297.986,86.95z
		 M335.386,80.859c-0.071-1.353-0.303-2.671-0.694-3.954c-0.392-1.282-0.998-2.42-1.816-3.419c-0.819-0.997-1.854-1.817-3.099-2.458
		c-1.247-0.642-2.797-0.962-4.648-0.962c-1.781,0-3.312,0.304-4.595,0.908c-1.282,0.606-2.352,1.408-3.206,2.404
		c-0.854,0.999-1.515,2.155-1.977,3.473c-0.464,1.319-0.802,2.655-1.016,4.007H335.386z"/>
	<g>
		<g>
			<path fill="#40539A" d="M302.357,58.986c-0.6-0.188-1.24-0.363-1.966-0.514c-1.212-0.249-2.423-0.462-3.634-0.641
				c-1.212-0.177-2.422-0.32-3.633-0.427c-1.212-0.107-2.243-0.161-3.099-0.161c-4.773,0-9.101,0.445-12.982,1.335
				c-3.884,0.892-7.25,1.835-10.099,2.832v53.214h15.922V71.669c0.711-0.213,1.764-0.409,3.152-0.587
				c1.39-0.177,2.581-0.267,3.58-0.267c1.121,0,2.205,0.052,3.254,0.153c1.639-3.574,3.71-6.681,6.221-9.191
				C300.102,60.749,301.211,59.839,302.357,58.986z"/>
		</g>
	</g>
	<path fill="#40539A" d="M380.346,115.695c-4.631-0.072-8.387-0.571-11.272-1.496c-2.885-0.925-5.166-2.226-6.839-3.9
		c-1.675-1.673-2.814-3.703-3.419-6.091c-0.607-2.386-0.909-5.076-0.909-8.068V34.27l15.922-2.565v61.229
		c0,1.426,0.106,2.708,0.32,3.847c0.215,1.141,0.622,2.103,1.229,2.885c0.604,0.785,1.478,1.426,2.618,1.924
		c1.138,0.499,2.671,0.819,4.595,0.961L380.346,115.695z"/>
	<path fill="#40539A" d="M436.641,58.42c-3.214,10.829-6.57,20.98-10.069,30.454c-3.5,9.475-7.321,18.665-11.465,27.569
		c-1.499,3.206-2.997,5.931-4.495,8.175c-1.499,2.244-3.139,4.096-4.923,5.556c-1.783,1.459-3.798,2.528-6.046,3.206
		c-2.247,0.676-4.868,1.016-7.864,1.016c-2.497,0-4.8-0.232-6.903-0.695c-2.104-0.464-3.834-0.98-5.189-1.549l2.778-12.716
		c1.64,0.569,3.102,0.962,4.383,1.175c1.282,0.214,2.639,0.321,4.063,0.321c2.851,0,5.041-0.767,6.573-2.298
		c1.533-1.533,2.834-3.651,3.903-6.358c-3.635-7.122-7.271-15.12-10.904-23.989c-3.636-8.869-7.058-18.823-10.263-29.866h16.884
		c0.715,2.778,1.556,5.788,2.522,9.029c0.966,3.243,1.985,6.519,3.059,9.831c1.071,3.312,2.164,6.537,3.273,9.671
		c1.107,3.136,2.165,5.984,3.167,8.549c0.928-2.565,1.895-5.413,2.896-8.549c1.002-3.134,1.985-6.358,2.949-9.671
		c0.966-3.312,1.896-6.588,2.791-9.831c0.893-3.241,1.698-6.25,2.414-9.029H436.641z"/>
	<path fill="#40539A" d="M443.258,44.421l15.922-2.564V58.42h19.126v13.25H459.18v19.769c0,3.35,0.588,6.021,1.762,8.014
		c1.176,1.995,3.544,2.992,7.106,2.992c1.709,0,3.473-0.161,5.289-0.481s3.474-0.765,4.969-1.335l2.244,12.395
		c-1.923,0.785-4.061,1.461-6.411,2.03c-2.351,0.57-5.236,0.855-8.655,0.855c-4.347,0-7.944-0.587-10.793-1.763
		c-2.85-1.175-5.129-2.813-6.838-4.916c-1.709-2.101-2.904-4.648-3.58-7.64c-0.678-2.992-1.015-6.305-1.015-9.938V44.421z"/>
	<g>
		<path fill="#98D3D9" d="M488.871,49.069c1.887,1.675,4.114,2.511,6.679,2.511s4.79-0.836,6.679-2.511
			c1.887-1.673,2.832-3.97,2.832-6.892c0-2.92-0.945-5.218-2.832-6.892c-1.889-1.673-4.114-2.511-6.679-2.511
			s-4.792,0.838-6.679,2.511c-1.889,1.674-2.831,3.972-2.831,6.892C486.04,45.099,486.982,47.396,488.871,49.069z"/>
		<rect x="487.643" y="58.42" fill="#40539A" width="15.921" height="56.206"/>
	</g>
	<path fill="#40539A" d="M511.708,86.523c0-4.061,0.657-7.889,1.977-11.487c1.318-3.597,3.223-6.731,5.718-9.403
		c2.492-2.671,5.52-4.79,9.082-6.358c3.562-1.566,7.622-2.351,12.182-2.351c2.992,0,5.734,0.267,8.228,0.801
		c2.494,0.534,4.916,1.301,7.268,2.297l-3.313,12.716c-1.495-0.569-3.136-1.069-4.915-1.496c-1.781-0.427-3.777-0.641-5.983-0.641
		c-4.702,0-8.212,1.46-10.526,4.38c-2.315,2.922-3.472,6.769-3.472,11.541c0,5.059,1.085,8.976,3.259,11.754
		c2.172,2.778,5.966,4.167,11.38,4.167c1.923,0,3.989-0.177,6.197-0.534c2.208-0.356,4.238-0.925,6.091-1.709l2.245,13.036
		c-1.854,0.785-4.168,1.459-6.946,2.03c-2.778,0.569-5.843,0.855-9.189,0.855c-5.13,0-9.547-0.767-13.25-2.297
		c-3.705-1.531-6.751-3.615-9.137-6.251c-2.388-2.635-4.133-5.752-5.235-9.35C512.26,94.627,511.708,90.727,511.708,86.523z"/>
	<path fill="#40539A" d="M582.655,103.192c2.921,0,4.985-0.284,6.197-0.854c1.211-0.569,1.816-1.673,1.816-3.312
		c0-1.282-0.784-2.404-2.351-3.366c-1.568-0.962-3.954-2.047-7.16-3.259c-2.493-0.924-4.754-1.886-6.784-2.885
		c-2.031-0.997-3.758-2.19-5.183-3.58c-1.427-1.389-2.529-3.045-3.312-4.969c-0.785-1.923-1.176-4.238-1.176-6.946
		c0-5.271,1.959-9.438,5.878-12.502c3.916-3.062,9.296-4.595,16.135-4.595c3.419,0,6.695,0.304,9.83,0.908
		c3.135,0.606,5.627,1.266,7.48,1.977l-2.778,12.395c-1.853-0.641-3.864-1.21-6.037-1.709c-2.174-0.498-4.614-0.748-7.32-0.748
		c-4.986,0-7.479,1.39-7.479,4.168c0,0.641,0.106,1.211,0.32,1.709c0.215,0.499,0.641,0.98,1.283,1.442
		c0.641,0.464,1.512,0.965,2.617,1.502c1.104,0.54,2.511,1.132,4.221,1.777c3.489,1.294,6.375,2.569,8.655,3.825
		c2.28,1.258,4.077,2.615,5.396,4.071c1.317,1.458,2.243,3.076,2.778,4.852c0.534,1.777,0.802,3.838,0.802,6.183
		c0,5.545-2.084,9.739-6.251,12.583c-4.168,2.842-10.062,4.264-17.686,4.264c-4.987,0-9.136-0.427-12.448-1.282
		c-3.312-0.855-5.61-1.566-6.892-2.137l2.671-12.93c2.707,1.068,5.484,1.907,8.335,2.511
		C577.062,102.89,579.877,103.192,582.655,103.192z"/>
</g>
<path fill="#40539A" d="M129.333,121.328c0,6.262-5.077,11.338-11.338,11.338H40.671c-6.262,0-11.338-5.077-11.338-11.338V44.004
	c0-6.262,5.077-11.338,11.338-11.338h77.323c6.262,0,11.338,5.077,11.338,11.338V121.328z"/>
<path fill="#98D3D9" d="M111.93,47.59c-4.972,0-9.017,4.046-9.017,9.018c0,2.354,0.914,4.493,2.396,6.101L93.305,82.792
	c-1.002-0.386-2.087-0.606-3.225-0.606c-3.299,0-6.182,1.787-7.754,4.438l-5.73-3.717c0.254-0.833,0.393-1.714,0.393-2.629
	c0-4.972-4.045-9.017-9.018-9.017c-4.972,0-9.018,4.045-9.018,9.017c0,1.96,0.636,3.771,1.702,5.252l-9.362,11.591
	c-1.301-0.729-2.797-1.149-4.392-1.149c-4.972,0-9.018,4.045-9.018,9.017c0,4.972,4.045,9.018,9.018,9.018
	c4.973,0,9.018-4.046,9.018-9.018c0-2.254-0.837-4.311-2.208-5.894l9.183-11.37c1.448,0.989,3.195,1.571,5.077,1.571
	c2.938,0,5.543-1.419,7.191-3.6l6.049,3.924c-0.092,0.515-0.148,1.042-0.148,1.583c0,4.972,4.045,9.018,9.017,9.018
	c4.973,0,9.019-4.045,9.019-9.018c0-2.716-1.212-5.149-3.118-6.804l11.825-19.783c1.237,0.641,2.638,1.008,4.125,1.008
	c4.973,0,9.018-4.045,9.018-9.017C120.948,51.636,116.902,47.59,111.93,47.59z M46.901,110.886c-3.251,0-5.896-2.645-5.896-5.896
	c0-3.251,2.645-5.896,5.896-5.896c3.251,0,5.896,2.645,5.896,5.896C52.798,108.241,50.153,110.886,46.901,110.886z M67.971,86.175
	c-3.251,0-5.896-2.645-5.896-5.897c0-3.251,2.645-5.896,5.896-5.896s5.896,2.645,5.896,5.896
	C73.867,83.53,71.222,86.175,67.971,86.175z M90.08,97.1c-3.251,0-5.896-2.645-5.896-5.896c0-3.252,2.645-5.897,5.896-5.897
	c3.252,0,5.897,2.645,5.897,5.897C95.977,94.455,93.332,97.1,90.08,97.1z M111.93,62.504c-3.251,0-5.896-2.645-5.896-5.896
	s2.645-5.896,5.896-5.896c3.251,0,5.896,2.645,5.896,5.896S115.181,62.504,111.93,62.504z"/>
</svg>
